<?xml version="1.0" encoding="UTF-8" standalone="no"?>
<!DOCTYPE svg PUBLIC "-//W3C//DTD SVG 1.1//EN"
 "http://www.w3.org/Graphics/SVG/1.1/DTD/svg11.dtd">
<!-- Generated by graphviz version 12.0.0 (20240704.0754)
 -->
<!-- Pages: 1 -->
<svg width="8339pt" height="116pt"
 viewBox="0.00 0.00 8339.06 116.00" xmlns="http://www.w3.org/2000/svg" xmlns:xlink="http://www.w3.org/1999/xlink">
<g id="graph0" class="graph" transform="scale(1 1) rotate(0) translate(4 112)">
<polygon fill="white" stroke="none" points="-4,4 -4,-112 8335.06,-112 8335.06,4 -4,4"/>
<!-- ecological_footprint -->
<g id="node1" class="node">
<title>ecological_footprint</title>
<polygon fill="none" stroke="black" points="1900.29,-108 1774.79,-108 1774.79,-72 1900.29,-72 1900.29,-108"/>
<text text-anchor="middle" x="1837.54" y="-84.95" font-family="Times,serif" font-size="14.00">ecological_footprint</text>
</g>
<!-- ecological_footprint.Unnamed -->
<g id="node3" class="node">
<title>ecological_footprint.Unnamed</title>
<ellipse fill="none" stroke="black" cx="124.54" cy="-18" rx="124.54" ry="18"/>
<text text-anchor="middle" x="124.54" y="-12.95" font-family="Times,serif" font-size="14.00">ecological_footprint.Unnamed</text>
</g>
<!-- ecological_footprint&#45;&gt;ecological_footprint.Unnamed -->
<g id="edge1" class="edge">
<title>ecological_footprint&#45;&gt;ecological_footprint.Unnamed: 0</title>
<path fill="none" stroke="black" d="M1774.62,-88.98C1561.39,-88.46 846.72,-83.08 258.54,-36 247.03,-35.08 234.98,-33.88 223.04,-32.55"/>
<polygon fill="black" stroke="black" points="223.48,-29.08 213.14,-31.41 222.67,-36.03 223.48,-29.08"/>
</g>
<!-- ecological_footprint.Country -->
<g id="node4" class="node">
<title>ecological_footprint.Country</title>
<ellipse fill="none" stroke="black" cx="308.54" cy="-18" rx="41.12" ry="18"/>
<text text-anchor="middle" x="308.54" y="-12.95" font-family="Times,serif" font-size="14.00">Country</text>
</g>
<!-- ecological_footprint&#45;&gt;ecological_footprint.Country -->
<g id="edge2" class="edge">
<title>ecological_footprint&#45;&gt;ecological_footprint.Country</title>
<path fill="none" stroke="black" d="M1774.51,-89.18C1529,-89.51 636.51,-87.09 358.54,-36 355.56,-35.45 352.51,-34.76 349.47,-33.97"/>
<polygon fill="black" stroke="black" points="350.6,-30.66 340.02,-31.21 348.64,-37.38 350.6,-30.66"/>
</g>
<!-- ecological_footprint.Region -->
<g id="node5" class="node">
<title>ecological_footprint.Region</title>
<ellipse fill="none" stroke="black" cx="405.54" cy="-18" rx="37.53" ry="18"/>
<text text-anchor="middle" x="405.54" y="-12.95" font-family="Times,serif" font-size="14.00">Region</text>
</g>
<!-- ecological_footprint&#45;&gt;ecological_footprint.Region -->
<g id="edge3" class="edge">
<title>ecological_footprint&#45;&gt;ecological_footprint.Region</title>
<path fill="none" stroke="black" d="M1774.45,-89.22C1538.71,-89.63 709.87,-87.32 451.54,-36 448.93,-35.48 446.28,-34.84 443.62,-34.11"/>
<polygon fill="black" stroke="black" points="444.89,-30.84 434.3,-31.16 442.78,-37.51 444.89,-30.84"/>
</g>
<!-- ecological_footprint.SDGi -->
<g id="node6" class="node">
<title>ecological_footprint.SDGi</title>
<ellipse fill="none" stroke="black" cx="492.54" cy="-18" rx="31.9" ry="18"/>
<text text-anchor="middle" x="492.54" y="-12.95" font-family="Times,serif" font-size="14.00">SDGi</text>
</g>
<!-- ecological_footprint&#45;&gt;ecological_footprint.SDGi -->
<g id="edge4" class="edge">
<title>ecological_footprint&#45;&gt;ecological_footprint.SDGi</title>
<path fill="none" stroke="black" d="M1774.65,-89.36C1548.08,-90.2 774.31,-89.04 533.54,-36 531.4,-35.53 529.22,-34.95 527.05,-34.3"/>
<polygon fill="black" stroke="black" points="528.38,-31.06 517.79,-31.03 526.06,-37.66 528.38,-31.06"/>
</g>
<!-- ecological_footprint.Life Expectancy -->
<g id="node7" class="node">
<title>ecological_footprint.Life Expectancy</title>
<ellipse fill="none" stroke="black" cx="614.54" cy="-18" rx="71.82" ry="18"/>
<text text-anchor="middle" x="614.54" y="-12.95" font-family="Times,serif" font-size="14.00">Life Expectancy</text>
</g>
<!-- ecological_footprint&#45;&gt;ecological_footprint.Life Expectancy -->
<g id="edge5" class="edge">
<title>ecological_footprint&#45;&gt;ecological_footprint.Life Expectancy</title>
<path fill="none" stroke="black" d="M1774.41,-89.61C1601.22,-90.53 1104.33,-88.04 695.54,-36 689.48,-35.23 683.2,-34.25 676.94,-33.14"/>
<polygon fill="black" stroke="black" points="677.71,-29.72 667.24,-31.32 676.42,-36.6 677.71,-29.72"/>
</g>
<!-- ecological_footprint.HDI -->
<g id="node8" class="node">
<title>ecological_footprint.HDI</title>
<ellipse fill="none" stroke="black" cx="731.54" cy="-18" rx="27.3" ry="18"/>
<text text-anchor="middle" x="731.54" y="-12.95" font-family="Times,serif" font-size="14.00">HDI</text>
</g>
<!-- ecological_footprint&#45;&gt;ecological_footprint.HDI -->
<g id="edge6" class="edge">
<title>ecological_footprint&#45;&gt;ecological_footprint.HDI</title>
<path fill="none" stroke="black" d="M1774.44,-89.09C1574.99,-88.87 960.03,-84.2 767.54,-36 765.91,-35.59 764.26,-35.11 762.61,-34.56"/>
<polygon fill="black" stroke="black" points="763.96,-31.33 753.37,-30.89 761.37,-37.84 763.96,-31.33"/>
</g>
<!-- ecological_footprint.Per Capita GDP -->
<g id="node9" class="node">
<title>ecological_footprint.Per Capita GDP</title>
<ellipse fill="none" stroke="black" cx="847.54" cy="-18" rx="70.8" ry="18"/>
<text text-anchor="middle" x="847.54" y="-12.95" font-family="Times,serif" font-size="14.00">Per Capita GDP</text>
</g>
<!-- ecological_footprint&#45;&gt;ecological_footprint.Per Capita GDP -->
<g id="edge7" class="edge">
<title>ecological_footprint&#45;&gt;ecological_footprint.Per Capita GDP</title>
<path fill="none" stroke="black" d="M1774.34,-88.6C1625.88,-86.95 1243.57,-78.53 927.54,-36 921.56,-35.2 915.36,-34.19 909.18,-33.07"/>
<polygon fill="black" stroke="black" points="910.09,-29.68 899.61,-31.24 908.77,-36.56 910.09,-29.68"/>
</g>
<!-- ecological_footprint.Income Group -->
<g id="node10" class="node">
<title>ecological_footprint.Income Group</title>
<ellipse fill="none" stroke="black" cx="1001.54" cy="-18" rx="65.17" ry="18"/>
<text text-anchor="middle" x="1001.54" y="-12.95" font-family="Times,serif" font-size="14.00">Income Group</text>
</g>
<!-- ecological_footprint&#45;&gt;ecological_footprint.Income Group -->
<g id="edge8" class="edge">
<title>ecological_footprint&#45;&gt;ecological_footprint.Income Group</title>
<path fill="none" stroke="black" d="M1774.46,-87.94C1643.51,-85.02 1332.96,-74.28 1075.54,-36 1070.28,-35.22 1064.83,-34.26 1059.39,-33.2"/>
<polygon fill="black" stroke="black" points="1060.29,-29.81 1049.79,-31.21 1058.87,-36.66 1060.29,-29.81"/>
</g>
<!-- ecological_footprint.Population (millions) -->
<g id="node11" class="node">
<title>ecological_footprint.Population (millions)</title>
<ellipse fill="none" stroke="black" cx="1174.54" cy="-18" rx="90.25" ry="18"/>
<text text-anchor="middle" x="1174.54" y="-12.95" font-family="Times,serif" font-size="14.00">Population (millions)</text>
</g>
<!-- ecological_footprint&#45;&gt;ecological_footprint.Population (millions) -->
<g id="edge9" class="edge">
<title>ecological_footprint&#45;&gt;ecological_footprint.Population (millions)</title>
<path fill="none" stroke="black" d="M1774.35,-84.64C1669.86,-77.09 1454.64,-60.02 1273.54,-36 1266.11,-35.01 1258.38,-33.88 1250.66,-32.67"/>
<polygon fill="black" stroke="black" points="1251.32,-29.24 1240.89,-31.11 1250.21,-36.15 1251.32,-29.24"/>
</g>
<!-- ecological_footprint.Cropland Footprint -->
<g id="node12" class="node">
<title>ecological_footprint.Cropland Footprint</title>
<ellipse fill="none" stroke="black" cx="1364.54" cy="-18" rx="82.06" ry="18"/>
<text text-anchor="middle" x="1364.54" y="-12.95" font-family="Times,serif" font-size="14.00">Cropland Footprint</text>
</g>
<!-- ecological_footprint&#45;&gt;ecological_footprint.Cropland Footprint -->
<g id="edge10" class="edge">
<title>ecological_footprint&#45;&gt;ecological_footprint.Cropland Footprint</title>
<path fill="none" stroke="black" d="M1774.38,-81.09C1698.69,-71.41 1568.12,-54.06 1456.54,-36 1449.81,-34.91 1442.8,-33.72 1435.81,-32.49"/>
<polygon fill="black" stroke="black" points="1436.8,-29.11 1426.34,-30.81 1435.57,-36.01 1436.8,-29.11"/>
</g>
<!-- ecological_footprint.Grazing Footprint -->
<g id="node13" class="node">
<title>ecological_footprint.Grazing Footprint</title>
<ellipse fill="none" stroke="black" cx="1542.54" cy="-18" rx="77.45" ry="18"/>
<text text-anchor="middle" x="1542.54" y="-12.95" font-family="Times,serif" font-size="14.00">Grazing Footprint</text>
</g>
<!-- ecological_footprint&#45;&gt;ecological_footprint.Grazing Footprint -->
<g id="edge11" class="edge">
<title>ecological_footprint&#45;&gt;ecological_footprint.Grazing Footprint</title>
<path fill="none" stroke="black" d="M1774.62,-74.07C1725.06,-62.31 1656.27,-45.99 1606.46,-34.17"/>
<polygon fill="black" stroke="black" points="1607.51,-30.82 1596.97,-31.92 1605.89,-37.63 1607.51,-30.82"/>
</g>
<!-- ecological_footprint.Forest Product Footprint -->
<g id="node14" class="node">
<title>ecological_footprint.Forest Product Footprint</title>
<ellipse fill="none" stroke="black" cx="1739.54" cy="-18" rx="102.02" ry="18"/>
<text text-anchor="middle" x="1739.54" y="-12.95" font-family="Times,serif" font-size="14.00">Forest Product Footprint</text>
</g>
<!-- ecological_footprint&#45;&gt;ecological_footprint.Forest Product Footprint -->
<g id="edge12" class="edge">
<title>ecological_footprint&#45;&gt;ecological_footprint.Forest Product Footprint</title>
<path fill="none" stroke="black" d="M1813.06,-71.52C1800.75,-62.72 1785.64,-51.93 1772.34,-42.43"/>
<polygon fill="black" stroke="black" points="1774.43,-39.62 1764.26,-36.66 1770.36,-45.32 1774.43,-39.62"/>
</g>
<!-- ecological_footprint.Carbon Footprint -->
<g id="node15" class="node">
<title>ecological_footprint.Carbon Footprint</title>
<ellipse fill="none" stroke="black" cx="1934.54" cy="-18" rx="74.89" ry="18"/>
<text text-anchor="middle" x="1934.54" y="-12.95" font-family="Times,serif" font-size="14.00">Carbon Footprint</text>
</g>
<!-- ecological_footprint&#45;&gt;ecological_footprint.Carbon Footprint -->
<g id="edge13" class="edge">
<title>ecological_footprint&#45;&gt;ecological_footprint.Carbon Footprint</title>
<path fill="none" stroke="black" d="M1861.52,-71.7C1873.89,-62.77 1889.14,-51.76 1902.51,-42.11"/>
<polygon fill="black" stroke="black" points="1904.55,-44.96 1910.61,-36.27 1900.45,-39.28 1904.55,-44.96"/>
</g>
<!-- ecological_footprint.Fish Footprint -->
<g id="node16" class="node">
<title>ecological_footprint.Fish Footprint</title>
<ellipse fill="none" stroke="black" cx="2091.54" cy="-18" rx="63.63" ry="18"/>
<text text-anchor="middle" x="2091.54" y="-12.95" font-family="Times,serif" font-size="14.00">Fish Footprint</text>
</g>
<!-- ecological_footprint&#45;&gt;ecological_footprint.Fish Footprint -->
<g id="edge14" class="edge">
<title>ecological_footprint&#45;&gt;ecological_footprint.Fish Footprint</title>
<path fill="none" stroke="black" d="M1900.65,-71.61C1942.29,-60.13 1996.3,-45.25 2036.25,-34.24"/>
<polygon fill="black" stroke="black" points="2036.95,-37.68 2045.66,-31.64 2035.09,-30.93 2036.95,-37.68"/>
</g>
<!-- ecological_footprint.Built up land -->
<g id="node17" class="node">
<title>ecological_footprint.Built up land</title>
<ellipse fill="none" stroke="black" cx="2232.54" cy="-18" rx="59.54" ry="18"/>
<text text-anchor="middle" x="2232.54" y="-12.95" font-family="Times,serif" font-size="14.00">Built up land</text>
</g>
<!-- ecological_footprint&#45;&gt;ecological_footprint.Built up land -->
<g id="edge15" class="edge">
<title>ecological_footprint&#45;&gt;ecological_footprint.Built up land</title>
<path fill="none" stroke="black" d="M1900.52,-80.4C1966.57,-71.01 2073.28,-54.77 2164.54,-36 2168.84,-35.12 2173.28,-34.14 2177.74,-33.12"/>
<polygon fill="black" stroke="black" points="2178.37,-36.57 2187.3,-30.87 2176.76,-29.76 2178.37,-36.57"/>
</g>
<!-- ecological_footprint.Total Ecological Footprint (Consumption) -->
<g id="node18" class="node">
<title>ecological_footprint.Total Ecological Footprint (Consumption)</title>
<ellipse fill="none" stroke="black" cx="2478.54" cy="-18" rx="168.04" ry="18"/>
<text text-anchor="middle" x="2478.54" y="-12.95" font-family="Times,serif" font-size="14.00">Total Ecological Footprint (Consumption)</text>
</g>
<!-- ecological_footprint&#45;&gt;ecological_footprint.Total Ecological Footprint (Consumption) -->
<g id="edge16" class="edge">
<title>ecological_footprint&#45;&gt;ecological_footprint.Total Ecological Footprint (Consumption)</title>
<path fill="none" stroke="black" d="M1900.76,-82.1C2005.44,-70.66 2216.7,-47.59 2352.7,-32.74"/>
<polygon fill="black" stroke="black" points="2352.92,-36.24 2362.48,-31.67 2352.16,-29.28 2352.92,-36.24"/>
</g>
<!-- ecological_footprint.Cropland -->
<g id="node19" class="node">
<title>ecological_footprint.Cropland</title>
<ellipse fill="none" stroke="black" cx="2709.54" cy="-18" rx="45.21" ry="18"/>
<text text-anchor="middle" x="2709.54" y="-12.95" font-family="Times,serif" font-size="14.00">Cropland</text>
</g>
<!-- ecological_footprint&#45;&gt;ecological_footprint.Cropland -->
<g id="edge17" class="edge">
<title>ecological_footprint&#45;&gt;ecological_footprint.Cropland</title>
<path fill="none" stroke="black" d="M1900.66,-86.87C2066.36,-80.97 2510.93,-63.04 2655.54,-36 2658.91,-35.37 2662.36,-34.6 2665.81,-33.73"/>
<polygon fill="black" stroke="black" points="2666.57,-37.15 2675.27,-31.11 2664.7,-30.41 2666.57,-37.15"/>
</g>
<!-- ecological_footprint.Grazing land -->
<g id="node20" class="node">
<title>ecological_footprint.Grazing land</title>
<ellipse fill="none" stroke="black" cx="2831.54" cy="-18" rx="59.03" ry="18"/>
<text text-anchor="middle" x="2831.54" y="-12.95" font-family="Times,serif" font-size="14.00">Grazing land</text>
</g>
<!-- ecological_footprint&#45;&gt;ecological_footprint.Grazing land -->
<g id="edge18" class="edge">
<title>ecological_footprint&#45;&gt;ecological_footprint.Grazing land</title>
<path fill="none" stroke="black" d="M1900.56,-89.45C2050.85,-89.66 2441.77,-84.98 2763.54,-36 2768.41,-35.26 2773.44,-34.33 2778.45,-33.28"/>
<polygon fill="black" stroke="black" points="2778.87,-36.78 2787.87,-31.18 2777.35,-29.94 2778.87,-36.78"/>
</g>
<!-- ecological_footprint.Forest land -->
<g id="node21" class="node">
<title>ecological_footprint.Forest land</title>
<ellipse fill="none" stroke="black" cx="2960.54" cy="-18" rx="52.38" ry="18"/>
<text text-anchor="middle" x="2960.54" y="-12.95" font-family="Times,serif" font-size="14.00">Forest land</text>
</g>
<!-- ecological_footprint&#45;&gt;ecological_footprint.Forest land -->
<g id="edge19" class="edge">
<title>ecological_footprint&#45;&gt;ecological_footprint.Forest land</title>
<path fill="none" stroke="black" d="M1900.59,-87.69C2098.44,-83.29 2705.36,-67.5 2899.54,-36 2903.58,-35.35 2907.73,-34.52 2911.87,-33.59"/>
<polygon fill="black" stroke="black" points="2912.41,-37.07 2921.29,-31.29 2910.74,-30.27 2912.41,-37.07"/>
</g>
<!-- ecological_footprint.Fishing ground -->
<g id="node22" class="node">
<title>ecological_footprint.Fishing ground</title>
<ellipse fill="none" stroke="black" cx="3098.54" cy="-18" rx="67.22" ry="18"/>
<text text-anchor="middle" x="3098.54" y="-12.95" font-family="Times,serif" font-size="14.00">Fishing ground</text>
</g>
<!-- ecological_footprint&#45;&gt;ecological_footprint.Fishing ground -->
<g id="edge20" class="edge">
<title>ecological_footprint&#45;&gt;ecological_footprint.Fishing ground</title>
<path fill="none" stroke="black" d="M1900.56,-87.61C2112.98,-82.72 2801.73,-64.96 3021.54,-36 3027.48,-35.22 3033.64,-34.21 3039.76,-33.07"/>
<polygon fill="black" stroke="black" points="3040.09,-36.57 3049.22,-31.19 3038.74,-29.7 3040.09,-36.57"/>
</g>
<!-- ecological_footprint.Total biocapacity -->
<g id="node23" class="node">
<title>ecological_footprint.Total biocapacity</title>
<ellipse fill="none" stroke="black" cx="3259.54" cy="-18" rx="75.41" ry="18"/>
<text text-anchor="middle" x="3259.54" y="-12.95" font-family="Times,serif" font-size="14.00">Total biocapacity</text>
</g>
<!-- ecological_footprint&#45;&gt;ecological_footprint.Total biocapacity -->
<g id="edge21" class="edge">
<title>ecological_footprint&#45;&gt;ecological_footprint.Total biocapacity</title>
<path fill="none" stroke="black" d="M1900.55,-87.82C2130.36,-83.32 2923.11,-65.94 3174.54,-36 3181.31,-35.19 3188.34,-34.14 3195.33,-32.95"/>
<polygon fill="black" stroke="black" points="3195.53,-36.48 3204.75,-31.26 3194.29,-29.59 3195.53,-36.48"/>
</g>
<!-- ecological_footprint.Ecological (Deficit) or Reserve -->
<g id="node24" class="node">
<title>ecological_footprint.Ecological (Deficit) or Reserve</title>
<ellipse fill="none" stroke="black" cx="3480.54" cy="-18" rx="127.1" ry="18"/>
<text text-anchor="middle" x="3480.54" y="-12.95" font-family="Times,serif" font-size="14.00">Ecological (Deficit) or Reserve</text>
</g>
<!-- ecological_footprint&#45;&gt;ecological_footprint.Ecological (Deficit) or Reserve -->
<g id="edge22" class="edge">
<title>ecological_footprint&#45;&gt;ecological_footprint.Ecological (Deficit) or Reserve</title>
<path fill="none" stroke="black" d="M1900.78,-88.77C2108.03,-87.59 2785.43,-80.36 3343.54,-36 3355.43,-35.05 3367.87,-33.83 3380.21,-32.48"/>
<polygon fill="black" stroke="black" points="3380.44,-35.98 3389.98,-31.38 3379.65,-29.02 3380.44,-35.98"/>
</g>
<!-- ecological_footprint.Number of Earths required -->
<g id="node25" class="node">
<title>ecological_footprint.Number of Earths required</title>
<ellipse fill="none" stroke="black" cx="3736.54" cy="-18" rx="111.23" ry="18"/>
<text text-anchor="middle" x="3736.54" y="-12.95" font-family="Times,serif" font-size="14.00">Number of Earths required</text>
</g>
<!-- ecological_footprint&#45;&gt;ecological_footprint.Number of Earths required -->
<g id="edge23" class="edge">
<title>ecological_footprint&#45;&gt;ecological_footprint.Number of Earths required</title>
<path fill="none" stroke="black" d="M1900.56,-88.06C2175.67,-83.82 3272.88,-65.37 3616.54,-36 3626.62,-35.14 3637.16,-34 3647.61,-32.72"/>
<polygon fill="black" stroke="black" points="3647.92,-36.21 3657.4,-31.47 3647.04,-29.26 3647.92,-36.21"/>
</g>
<!-- ecological_footprint.Number of Countries required -->
<g id="node26" class="node">
<title>ecological_footprint.Number of Countries required</title>
<ellipse fill="none" stroke="black" cx="3989.54" cy="-18" rx="123.52" ry="18"/>
<text text-anchor="middle" x="3989.54" y="-12.95" font-family="Times,serif" font-size="14.00">Number of Countries required</text>
</g>
<!-- ecological_footprint&#45;&gt;ecological_footprint.Number of Countries required -->
<g id="edge24" class="edge">
<title>ecological_footprint&#45;&gt;ecological_footprint.Number of Countries required</title>
<path fill="none" stroke="black" d="M1900.39,-88.21C2197.45,-84.32 3462.57,-66.27 3856.54,-36 3868.06,-35.11 3880.11,-33.93 3892.06,-32.6"/>
<polygon fill="black" stroke="black" points="3892.42,-36.09 3901.96,-31.46 3891.62,-29.13 3892.42,-36.09"/>
</g>
<!-- ecological_footprint.Unnamed: 0 -->
<g id="node2" class="node">
<title>ecological_footprint.Unnamed: 0</title>
<ellipse fill="none" stroke="black" cx="3975.54" cy="-90" rx="56.98" ry="18"/>
<text text-anchor="middle" x="3975.54" y="-84.95" font-family="Times,serif" font-size="14.00">Unnamed: 0</text>
</g>
<!-- ecological_footprint_by_country -->
<g id="node27" class="node">
<title>ecological_footprint_by_country</title>
<polygon fill="none" stroke="black" points="6147.41,-108 5953.66,-108 5953.66,-72 6147.41,-72 6147.41,-108"/>
<text text-anchor="middle" x="6050.54" y="-84.95" font-family="Times,serif" font-size="14.00">ecological_footprint_by_country</text>
</g>
<!-- ecological_footprint_by_country.Unnamed -->
<g id="node29" class="node">
<title>ecological_footprint_by_country.Unnamed</title>
<ellipse fill="none" stroke="black" cx="4301.54" cy="-18" rx="170.6" ry="18"/>
<text text-anchor="middle" x="4301.54" y="-12.95" font-family="Times,serif" font-size="14.00">ecological_footprint_by_country.Unnamed</text>
</g>
<!-- ecological_footprint_by_country&#45;&gt;ecological_footprint_by_country.Unnamed -->
<g id="edge25" class="edge">
<title>ecological_footprint_by_country&#45;&gt;ecological_footprint_by_country.Unnamed: 0</title>
<path fill="none" stroke="black" d="M5953.58,-87.76C5707.37,-84.17 5038.11,-71.65 4481.54,-36 4465.35,-34.96 4448.36,-33.65 4431.56,-32.22"/>
<polygon fill="black" stroke="black" points="4432.33,-28.77 4422.06,-31.39 4431.72,-35.75 4432.33,-28.77"/>
</g>
<!-- ecological_footprint_by_country.Country -->
<g id="node30" class="node">
<title>ecological_footprint_by_country.Country</title>
<ellipse fill="none" stroke="black" cx="4531.54" cy="-18" rx="41.12" ry="18"/>
<text text-anchor="middle" x="4531.54" y="-12.95" font-family="Times,serif" font-size="14.00">Country</text>
</g>
<!-- ecological_footprint_by_country&#45;&gt;ecological_footprint_by_country.Country -->
<g id="edge26" class="edge">
<title>ecological_footprint_by_country&#45;&gt;ecological_footprint_by_country.Country</title>
<path fill="none" stroke="black" d="M5953.36,-89.18C5669.64,-89.11 4845.86,-84.62 4581.54,-36 4578.56,-35.45 4575.51,-34.76 4572.47,-33.97"/>
<polygon fill="black" stroke="black" points="4573.6,-30.66 4563.02,-31.21 4571.64,-37.38 4573.6,-30.66"/>
</g>
<!-- ecological_footprint_by_country.Region -->
<g id="node31" class="node">
<title>ecological_footprint_by_country.Region</title>
<ellipse fill="none" stroke="black" cx="4628.54" cy="-18" rx="37.53" ry="18"/>
<text text-anchor="middle" x="4628.54" y="-12.95" font-family="Times,serif" font-size="14.00">Region</text>
</g>
<!-- ecological_footprint_by_country&#45;&gt;ecological_footprint_by_country.Region -->
<g id="edge27" class="edge">
<title>ecological_footprint_by_country&#45;&gt;ecological_footprint_by_country.Region</title>
<path fill="none" stroke="black" d="M5953.21,-89.22C5681.64,-89.21 4919.57,-84.71 4674.54,-36 4671.93,-35.48 4669.28,-34.84 4666.62,-34.1"/>
<polygon fill="black" stroke="black" points="4667.89,-30.84 4657.3,-31.15 4665.78,-37.51 4667.89,-30.84"/>
</g>
<!-- ecological_footprint_by_country.SDGi -->
<g id="node32" class="node">
<title>ecological_footprint_by_country.SDGi</title>
<ellipse fill="none" stroke="black" cx="4715.54" cy="-18" rx="31.9" ry="18"/>
<text text-anchor="middle" x="4715.54" y="-12.95" font-family="Times,serif" font-size="14.00">SDGi</text>
</g>
<!-- ecological_footprint_by_country&#45;&gt;ecological_footprint_by_country.SDGi -->
<g id="edge28" class="edge">
<title>ecological_footprint_by_country&#45;&gt;ecological_footprint_by_country.SDGi</title>
<path fill="none" stroke="black" d="M5953.33,-89.42C5693,-89.85 4984.34,-86.22 4756.54,-36 4754.4,-35.53 4752.22,-34.95 4750.05,-34.29"/>
<polygon fill="black" stroke="black" points="4751.38,-31.06 4740.79,-31.03 4749.06,-37.66 4751.38,-31.06"/>
</g>
<!-- ecological_footprint_by_country.Life Exectancy -->
<g id="node33" class="node">
<title>ecological_footprint_by_country.Life Exectancy</title>
<ellipse fill="none" stroke="black" cx="4832.54" cy="-18" rx="67.22" ry="18"/>
<text text-anchor="middle" x="4832.54" y="-12.95" font-family="Times,serif" font-size="14.00">Life Exectancy</text>
</g>
<!-- ecological_footprint_by_country&#45;&gt;ecological_footprint_by_country.Life Exectancy -->
<g id="edge29" class="edge">
<title>ecological_footprint_by_country&#45;&gt;ecological_footprint_by_country.Life Exectancy</title>
<path fill="none" stroke="black" d="M5953.25,-86.62C5715.54,-80.46 5110.05,-62.59 4909.54,-36 4903.83,-35.24 4897.92,-34.28 4892.03,-33.19"/>
<polygon fill="black" stroke="black" points="4892.76,-29.76 4882.27,-31.27 4891.4,-36.63 4892.76,-29.76"/>
</g>
<!-- ecological_footprint_by_country.HDI -->
<g id="node34" class="node">
<title>ecological_footprint_by_country.HDI</title>
<ellipse fill="none" stroke="black" cx="4945.54" cy="-18" rx="27.3" ry="18"/>
<text text-anchor="middle" x="4945.54" y="-12.95" font-family="Times,serif" font-size="14.00">HDI</text>
</g>
<!-- ecological_footprint_by_country&#45;&gt;ecological_footprint_by_country.HDI -->
<g id="edge30" class="edge">
<title>ecological_footprint_by_country&#45;&gt;ecological_footprint_by_country.HDI</title>
<path fill="none" stroke="black" d="M5953.48,-89.01C5726.01,-88.26 5163.93,-81.67 4981.54,-36 4979.91,-35.59 4978.26,-35.11 4976.61,-34.56"/>
<polygon fill="black" stroke="black" points="4977.96,-31.33 4967.37,-30.89 4975.37,-37.84 4977.96,-31.33"/>
</g>
<!-- ecological_footprint_by_country.Per Capita GDP -->
<g id="node35" class="node">
<title>ecological_footprint_by_country.Per Capita GDP</title>
<ellipse fill="none" stroke="black" cx="5061.54" cy="-18" rx="70.8" ry="18"/>
<text text-anchor="middle" x="5061.54" y="-12.95" font-family="Times,serif" font-size="14.00">Per Capita GDP</text>
</g>
<!-- ecological_footprint_by_country&#45;&gt;ecological_footprint_by_country.Per Capita GDP -->
<g id="edge31" class="edge">
<title>ecological_footprint_by_country&#45;&gt;ecological_footprint_by_country.Per Capita GDP</title>
<path fill="none" stroke="black" d="M5953.22,-88.14C5786.37,-85.59 5435.29,-75.54 5141.54,-36 5135.56,-35.19 5129.36,-34.19 5123.18,-33.07"/>
<polygon fill="black" stroke="black" points="5124.09,-29.68 5113.61,-31.24 5122.77,-36.56 5124.09,-29.68"/>
</g>
<!-- ecological_footprint_by_country.Income Group -->
<g id="node36" class="node">
<title>ecological_footprint_by_country.Income Group</title>
<ellipse fill="none" stroke="black" cx="5215.54" cy="-18" rx="65.17" ry="18"/>
<text text-anchor="middle" x="5215.54" y="-12.95" font-family="Times,serif" font-size="14.00">Income Group</text>
</g>
<!-- ecological_footprint_by_country&#45;&gt;ecological_footprint_by_country.Income Group -->
<g id="edge32" class="edge">
<title>ecological_footprint_by_country&#45;&gt;ecological_footprint_by_country.Income Group</title>
<path fill="none" stroke="black" d="M5953.31,-87.08C5808.11,-83.13 5526.32,-71.22 5289.54,-36 5284.28,-35.22 5278.83,-34.26 5273.39,-33.2"/>
<polygon fill="black" stroke="black" points="5274.29,-29.81 5263.79,-31.21 5272.87,-36.66 5274.29,-29.81"/>
</g>
<!-- ecological_footprint_by_country.Population (millions) -->
<g id="node37" class="node">
<title>ecological_footprint_by_country.Population (millions)</title>
<ellipse fill="none" stroke="black" cx="5388.54" cy="-18" rx="90.25" ry="18"/>
<text text-anchor="middle" x="5388.54" y="-12.95" font-family="Times,serif" font-size="14.00">Population (millions)</text>
</g>
<!-- ecological_footprint_by_country&#45;&gt;ecological_footprint_by_country.Population (millions) -->
<g id="edge33" class="edge">
<title>ecological_footprint_by_country&#45;&gt;ecological_footprint_by_country.Population (millions)</title>
<path fill="none" stroke="black" d="M5953.4,-82.12C5840.99,-73.63 5650.43,-57.62 5487.54,-36 5480.11,-35.01 5472.38,-33.88 5464.66,-32.67"/>
<polygon fill="black" stroke="black" points="5465.32,-29.23 5454.9,-31.11 5464.21,-36.15 5465.32,-29.23"/>
</g>
<!-- ecological_footprint_by_country.Cropland Footprint -->
<g id="node38" class="node">
<title>ecological_footprint_by_country.Cropland Footprint</title>
<ellipse fill="none" stroke="black" cx="5578.54" cy="-18" rx="82.06" ry="18"/>
<text text-anchor="middle" x="5578.54" y="-12.95" font-family="Times,serif" font-size="14.00">Cropland Footprint</text>
</g>
<!-- ecological_footprint_by_country&#45;&gt;ecological_footprint_by_country.Cropland Footprint -->
<g id="edge34" class="edge">
<title>ecological_footprint_by_country&#45;&gt;ecological_footprint_by_country.Cropland Footprint</title>
<path fill="none" stroke="black" d="M5953.53,-76.67C5876.64,-66.61 5766.54,-51.56 5670.54,-36 5663.81,-34.91 5656.81,-33.72 5649.81,-32.49"/>
<polygon fill="black" stroke="black" points="5650.8,-29.11 5640.34,-30.8 5649.57,-36 5650.8,-29.11"/>
</g>
<!-- ecological_footprint_by_country.Grazing Footprint -->
<g id="node39" class="node">
<title>ecological_footprint_by_country.Grazing Footprint</title>
<ellipse fill="none" stroke="black" cx="5756.54" cy="-18" rx="77.45" ry="18"/>
<text text-anchor="middle" x="5756.54" y="-12.95" font-family="Times,serif" font-size="14.00">Grazing Footprint</text>
</g>
<!-- ecological_footprint_by_country&#45;&gt;ecological_footprint_by_country.Grazing Footprint -->
<g id="edge35" class="edge">
<title>ecological_footprint_by_country&#45;&gt;ecological_footprint_by_country.Grazing Footprint</title>
<path fill="none" stroke="black" d="M5977.11,-71.52C5928.87,-60.03 5866.4,-45.16 5820.26,-34.17"/>
<polygon fill="black" stroke="black" points="5821.2,-30.8 5810.67,-31.89 5819.58,-37.61 5821.2,-30.8"/>
</g>
<!-- ecological_footprint_by_country.Forest Product Footprint -->
<g id="node40" class="node">
<title>ecological_footprint_by_country.Forest Product Footprint</title>
<ellipse fill="none" stroke="black" cx="5953.54" cy="-18" rx="102.02" ry="18"/>
<text text-anchor="middle" x="5953.54" y="-12.95" font-family="Times,serif" font-size="14.00">Forest Product Footprint</text>
</g>
<!-- ecological_footprint_by_country&#45;&gt;ecological_footprint_by_country.Forest Product Footprint -->
<g id="edge36" class="edge">
<title>ecological_footprint_by_country&#45;&gt;ecological_footprint_by_country.Forest Product Footprint</title>
<path fill="none" stroke="black" d="M6026.56,-71.7C6014.37,-62.9 5999.38,-52.08 5986.16,-42.54"/>
<polygon fill="black" stroke="black" points="5988.29,-39.76 5978.13,-36.75 5984.2,-45.44 5988.29,-39.76"/>
</g>
<!-- ecological_footprint_by_country.Carbon Footprint -->
<g id="node41" class="node">
<title>ecological_footprint_by_country.Carbon Footprint</title>
<ellipse fill="none" stroke="black" cx="6148.54" cy="-18" rx="74.89" ry="18"/>
<text text-anchor="middle" x="6148.54" y="-12.95" font-family="Times,serif" font-size="14.00">Carbon Footprint</text>
</g>
<!-- ecological_footprint_by_country&#45;&gt;ecological_footprint_by_country.Carbon Footprint -->
<g id="edge37" class="edge">
<title>ecological_footprint_by_country&#45;&gt;ecological_footprint_by_country.Carbon Footprint</title>
<path fill="none" stroke="black" d="M6075.02,-71.52C6087.43,-62.65 6102.66,-51.77 6116.04,-42.21"/>
<polygon fill="black" stroke="black" points="6118.05,-45.08 6124.15,-36.42 6113.98,-39.38 6118.05,-45.08"/>
</g>
<!-- ecological_footprint_by_country.Fish Footprint -->
<g id="node42" class="node">
<title>ecological_footprint_by_country.Fish Footprint</title>
<ellipse fill="none" stroke="black" cx="6305.54" cy="-18" rx="63.63" ry="18"/>
<text text-anchor="middle" x="6305.54" y="-12.95" font-family="Times,serif" font-size="14.00">Fish Footprint</text>
</g>
<!-- ecological_footprint_by_country&#45;&gt;ecological_footprint_by_country.Fish Footprint -->
<g id="edge38" class="edge">
<title>ecological_footprint_by_country&#45;&gt;ecological_footprint_by_country.Fish Footprint</title>
<path fill="none" stroke="black" d="M6114.23,-71.52C6156.03,-60.04 6210.16,-45.18 6250.17,-34.2"/>
<polygon fill="black" stroke="black" points="6250.88,-37.63 6259.6,-31.61 6249.03,-30.88 6250.88,-37.63"/>
</g>
<!-- ecological_footprint_by_country.Built up land -->
<g id="node43" class="node">
<title>ecological_footprint_by_country.Built up land</title>
<ellipse fill="none" stroke="black" cx="6446.54" cy="-18" rx="59.54" ry="18"/>
<text text-anchor="middle" x="6446.54" y="-12.95" font-family="Times,serif" font-size="14.00">Built up land</text>
</g>
<!-- ecological_footprint_by_country&#45;&gt;ecological_footprint_by_country.Built up land -->
<g id="edge39" class="edge">
<title>ecological_footprint_by_country&#45;&gt;ecological_footprint_by_country.Built up land</title>
<path fill="none" stroke="black" d="M6147.54,-73.43C6242.19,-58.22 6372.8,-37.18 6378.54,-36 6382.84,-35.12 6387.28,-34.14 6391.74,-33.13"/>
<polygon fill="black" stroke="black" points="6392.37,-36.57 6401.3,-30.87 6390.76,-29.76 6392.37,-36.57"/>
</g>
<!-- ecological_footprint_by_country.Total Ecological Footprint (Consumption) -->
<g id="node44" class="node">
<title>ecological_footprint_by_country.Total Ecological Footprint (Consumption)</title>
<ellipse fill="none" stroke="black" cx="6692.54" cy="-18" rx="168.04" ry="18"/>
<text text-anchor="middle" x="6692.54" y="-12.95" font-family="Times,serif" font-size="14.00">Total Ecological Footprint (Consumption)</text>
</g>
<!-- ecological_footprint_by_country&#45;&gt;ecological_footprint_by_country.Total Ecological Footprint (Consumption) -->
<g id="edge40" class="edge">
<title>ecological_footprint_by_country&#45;&gt;ecological_footprint_by_country.Total Ecological Footprint (Consumption)</title>
<path fill="none" stroke="black" d="M6147.84,-73.16C6150.77,-72.76 6153.68,-72.37 6156.54,-72 6176.32,-69.44 6407.79,-46.75 6560.01,-31.9"/>
<polygon fill="black" stroke="black" points="6560.16,-35.4 6569.78,-30.95 6559.48,-28.44 6560.16,-35.4"/>
</g>
<!-- ecological_footprint_by_country.Cropland -->
<g id="node45" class="node">
<title>ecological_footprint_by_country.Cropland</title>
<ellipse fill="none" stroke="black" cx="6923.54" cy="-18" rx="45.21" ry="18"/>
<text text-anchor="middle" x="6923.54" y="-12.95" font-family="Times,serif" font-size="14.00">Cropland</text>
</g>
<!-- ecological_footprint_by_country&#45;&gt;ecological_footprint_by_country.Cropland -->
<g id="edge41" class="edge">
<title>ecological_footprint_by_country&#45;&gt;ecological_footprint_by_country.Cropland</title>
<path fill="none" stroke="black" d="M6147.81,-72.98C6150.75,-72.63 6153.67,-72.3 6156.54,-72 6472.09,-38.83 6557.24,-92.09 6869.54,-36 6872.91,-35.39 6876.37,-34.64 6879.82,-33.78"/>
<polygon fill="black" stroke="black" points="6880.57,-37.21 6889.29,-31.18 6878.72,-30.46 6880.57,-37.21"/>
</g>
<!-- ecological_footprint_by_country.Grazing land -->
<g id="node46" class="node">
<title>ecological_footprint_by_country.Grazing land</title>
<ellipse fill="none" stroke="black" cx="7045.54" cy="-18" rx="59.03" ry="18"/>
<text text-anchor="middle" x="7045.54" y="-12.95" font-family="Times,serif" font-size="14.00">Grazing land</text>
</g>
<!-- ecological_footprint_by_country&#45;&gt;ecological_footprint_by_country.Grazing land -->
<g id="edge42" class="edge">
<title>ecological_footprint_by_country&#45;&gt;ecological_footprint_by_country.Grazing land</title>
<path fill="none" stroke="black" d="M6147.81,-72.95C6150.75,-72.61 6153.67,-72.29 6156.54,-72 6519.9,-35.02 6616.1,-88.56 6977.54,-36 6982.41,-35.29 6987.45,-34.38 6992.46,-33.35"/>
<polygon fill="black" stroke="black" points="6992.88,-36.85 7001.88,-31.27 6991.36,-30.01 6992.88,-36.85"/>
</g>
<!-- ecological_footprint_by_country.Forest land -->
<g id="node47" class="node">
<title>ecological_footprint_by_country.Forest land</title>
<ellipse fill="none" stroke="black" cx="7174.54" cy="-18" rx="52.38" ry="18"/>
<text text-anchor="middle" x="7174.54" y="-12.95" font-family="Times,serif" font-size="14.00">Forest land</text>
</g>
<!-- ecological_footprint_by_country&#45;&gt;ecological_footprint_by_country.Forest land -->
<g id="edge43" class="edge">
<title>ecological_footprint_by_country&#45;&gt;ecological_footprint_by_country.Forest land</title>
<path fill="none" stroke="black" d="M6147.81,-72.93C6150.75,-72.6 6153.67,-72.28 6156.54,-72 6580.12,-30.22 6692.99,-101.58 7113.54,-36 7117.64,-35.36 7121.85,-34.54 7126.06,-33.61"/>
<polygon fill="black" stroke="black" points="7126.74,-37.04 7135.63,-31.28 7125.08,-30.24 7126.74,-37.04"/>
</g>
<!-- ecological_footprint_by_country.Fishing ground -->
<g id="node48" class="node">
<title>ecological_footprint_by_country.Fishing ground</title>
<ellipse fill="none" stroke="black" cx="7312.54" cy="-18" rx="67.22" ry="18"/>
<text text-anchor="middle" x="7312.54" y="-12.95" font-family="Times,serif" font-size="14.00">Fishing ground</text>
</g>
<!-- ecological_footprint_by_country&#45;&gt;ecological_footprint_by_country.Fishing ground -->
<g id="edge44" class="edge">
<title>ecological_footprint_by_country&#45;&gt;ecological_footprint_by_country.Fishing ground</title>
<path fill="none" stroke="black" d="M6147.81,-72.91C6150.75,-72.58 6153.66,-72.28 6156.54,-72 6634.14,-25.92 6759.48,-95.98 7235.54,-36 7241.48,-35.25 7247.64,-34.26 7253.77,-33.14"/>
<polygon fill="black" stroke="black" points="7254.1,-36.64 7263.24,-31.28 7252.75,-29.77 7254.1,-36.64"/>
</g>
<!-- ecological_footprint_by_country.Total biocapacity  -->
<g id="node49" class="node">
<title>ecological_footprint_by_country.Total biocapacity </title>
<ellipse fill="none" stroke="black" cx="7475.54" cy="-18" rx="77.97" ry="18"/>
<text text-anchor="middle" x="7475.54" y="-12.95" font-family="Times,serif" font-size="14.00">Total biocapacity </text>
</g>
<!-- ecological_footprint_by_country&#45;&gt;ecological_footprint_by_country.Total biocapacity  -->
<g id="edge45" class="edge">
<title>ecological_footprint_by_country&#45;&gt;ecological_footprint_by_country.Total biocapacity </title>
<path fill="none" stroke="black" d="M6147.81,-72.9C6150.75,-72.57 6153.66,-72.27 6156.54,-72 6701.9,-20.52 6844.13,-96.73 7388.54,-36 7395.28,-35.25 7402.29,-34.25 7409.26,-33.11"/>
<polygon fill="black" stroke="black" points="7409.77,-36.58 7419.03,-31.42 7408.58,-29.68 7409.77,-36.58"/>
</g>
<!-- ecological_footprint_by_country.Ecological (Deficit) or Reserve -->
<g id="node50" class="node">
<title>ecological_footprint_by_country.Ecological (Deficit) or Reserve</title>
<ellipse fill="none" stroke="black" cx="7698.54" cy="-18" rx="127.1" ry="18"/>
<text text-anchor="middle" x="7698.54" y="-12.95" font-family="Times,serif" font-size="14.00">Ecological (Deficit) or Reserve</text>
</g>
<!-- ecological_footprint_by_country&#45;&gt;ecological_footprint_by_country.Ecological (Deficit) or Reserve -->
<g id="edge46" class="edge">
<title>ecological_footprint_by_country&#45;&gt;ecological_footprint_by_country.Ecological (Deficit) or Reserve</title>
<path fill="none" stroke="black" d="M6147.8,-72.88C6150.75,-72.56 6153.66,-72.27 6156.54,-72 6778.97,-14.38 6939.2,-82.82 7562.54,-36 7574.35,-35.11 7586.71,-33.93 7598.95,-32.6"/>
<polygon fill="black" stroke="black" points="7599.1,-36.1 7608.64,-31.5 7598.31,-29.15 7599.1,-36.1"/>
</g>
<!-- ecological_footprint_by_country.Number of Earths required -->
<g id="node51" class="node">
<title>ecological_footprint_by_country.Number of Earths required</title>
<ellipse fill="none" stroke="black" cx="7954.54" cy="-18" rx="111.23" ry="18"/>
<text text-anchor="middle" x="7954.54" y="-12.95" font-family="Times,serif" font-size="14.00">Number of Earths required</text>
</g>
<!-- ecological_footprint_by_country&#45;&gt;ecological_footprint_by_country.Number of Earths required -->
<g id="edge47" class="edge">
<title>ecological_footprint_by_country&#45;&gt;ecological_footprint_by_country.Number of Earths required</title>
<path fill="none" stroke="black" d="M6147.8,-72.87C6150.75,-72.55 6153.66,-72.26 6156.54,-72 6899.45,-4.78 7091.04,-96.42 7834.54,-36 7844.7,-35.17 7855.32,-34.05 7865.86,-32.77"/>
<polygon fill="black" stroke="black" points="7866.25,-36.25 7875.73,-31.52 7865.37,-29.31 7866.25,-36.25"/>
</g>
<!-- ecological_footprint_by_country.Number of Countries required -->
<g id="node52" class="node">
<title>ecological_footprint_by_country.Number of Countries required</title>
<ellipse fill="none" stroke="black" cx="8207.54" cy="-18" rx="123.52" ry="18"/>
<text text-anchor="middle" x="8207.54" y="-12.95" font-family="Times,serif" font-size="14.00">Number of Countries required</text>
</g>
<!-- ecological_footprint_by_country&#45;&gt;ecological_footprint_by_country.Number of Countries required -->
<g id="edge48" class="edge">
<title>ecological_footprint_by_country&#45;&gt;ecological_footprint_by_country.Number of Countries required</title>
<path fill="none" stroke="black" d="M6147.8,-72.86C6150.74,-72.54 6153.66,-72.26 6156.54,-72 7005.77,3.69 7224.21,-98.14 8074.54,-36 8086.27,-35.14 8098.55,-33.96 8110.71,-32.62"/>
<polygon fill="black" stroke="black" points="8110.78,-36.13 8120.32,-31.51 8109.99,-29.18 8110.78,-36.13"/>
</g>
<!-- ecological_footprint_by_country.Unnamed: 0 -->
<g id="node28" class="node">
<title>ecological_footprint_by_country.Unnamed: 0</title>
<ellipse fill="none" stroke="black" cx="6222.54" cy="-90" rx="56.98" ry="18"/>
<text text-anchor="middle" x="6222.54" y="-84.95" font-family="Times,serif" font-size="14.00">Unnamed: 0</text>
</g>
</g>
</svg>
